<svg width="31" height="30" viewBox="0 0 31 30" fill="none" xmlns="http://www.w3.org/2000/svg">
<g clip-path="url(#clip0_1_161)">
<path d="M17.9908 20.8255L12.3433 17.7453C11.8012 18.2834 11.1119 18.649 10.3623 18.7959C9.61274 18.9429 8.83644 18.8646 8.13129 18.571C7.42614 18.2774 6.8237 17.7816 6.39992 17.1461C5.97614 16.5106 5.75 15.7638 5.75 15C5.75 14.2362 5.97614 13.4894 6.39992 12.8539C6.8237 12.2184 7.42614 11.7226 8.13129 11.429C8.83644 11.1354 9.61274 11.0571 10.3623 11.2041C11.1119 11.351 11.8012 11.7166 12.3433 12.2547L17.9908 9.17453C17.7971 8.26576 17.937 7.31765 18.3849 6.50355C18.8328 5.68946 19.5588 5.06379 20.4301 4.74097C21.3014 4.41814 22.2598 4.41973 23.13 4.74545C24.0002 5.07116 24.7241 5.69923 25.1693 6.51481C25.6145 7.33038 25.7512 8.27896 25.5545 9.18707C25.3578 10.0952 24.8408 10.9022 24.098 11.4604C23.3552 12.0186 22.4363 12.2909 21.5093 12.2273C20.5823 12.1637 19.7092 11.7686 19.0496 11.1141L13.402 14.1943C13.5147 14.7255 13.5147 15.2745 13.402 15.8057L19.0496 18.8859C19.7092 18.2314 20.5823 17.8363 21.5093 17.7727C22.4363 17.7091 23.3552 17.9814 24.098 18.5396C24.8408 19.0979 25.3578 19.9048 25.5545 20.8129C25.7512 21.721 25.6145 22.6696 25.1693 23.4852C24.7241 24.3008 24.0002 24.9288 23.13 25.2546C22.2598 25.5803 21.3014 25.5819 20.4301 25.259C19.5588 24.9362 18.8328 24.3105 18.3849 23.4964C17.937 22.6824 17.7971 21.7342 17.9908 20.8255Z" fill="white"/>
</g>
<defs>
<clipPath id="clip0_1_161">
<rect width="30" height="30" fill="white" transform="translate(0.5)"/>
</clipPath>
</defs>
</svg>
