<svg width="31" height="29" viewBox="0 0 31 29" fill="none" xmlns="http://www.w3.org/2000/svg">
<g filter="url(#filter0_d_1_22)">
<path d="M15.0599 4.20059C15.3244 3.60848 16.1649 3.60848 16.4294 4.20059L19.2153 10.4365C19.3274 10.6876 19.5679 10.8571 19.8421 10.8784L26.938 11.4283C27.6147 11.4808 27.8792 12.3334 27.3511 12.7597L22.028 17.0563C21.8004 17.24 21.7004 17.5392 21.7717 17.8229L23.3967 24.2805C23.5579 24.9211 22.8722 25.4422 22.2982 25.1153L16.1158 21.5946C15.8857 21.4636 15.6036 21.4636 15.3735 21.5946L9.19112 25.1153C8.61713 25.4421 7.93147 24.9211 8.09266 24.2805L9.71759 17.8229C9.78897 17.5392 9.68893 17.24 9.46133 17.0563L4.13822 12.7597C3.61009 12.3334 3.87465 11.4808 4.55133 11.4283L11.6473 10.8784C11.9214 10.8571 12.1619 10.6876 12.2741 10.4365L15.0599 4.20059Z" fill="#FECF47"/>
</g>
<defs>
<filter id="filter0_d_1_22" x="0.858276" y="0.7565" width="29.7728" height="27.4593" filterUnits="userSpaceOnUse" color-interpolation-filters="sRGB">
<feFlood flood-opacity="0" result="BackgroundImageFix"/>
<feColorMatrix in="SourceAlpha" type="matrix" values="0 0 0 0 0 0 0 0 0 0 0 0 0 0 0 0 0 0 127 0" result="hardAlpha"/>
<feOffset/>
<feGaussianBlur stdDeviation="1.5"/>
<feComposite in2="hardAlpha" operator="out"/>
<feColorMatrix type="matrix" values="0 0 0 0 0 0 0 0 0 0 0 0 0 0 0 0 0 0 0.12 0"/>
<feBlend mode="normal" in2="BackgroundImageFix" result="effect1_dropShadow_1_22"/>
<feBlend mode="normal" in="SourceGraphic" in2="effect1_dropShadow_1_22" result="shape"/>
</filter>
</defs>
</svg>
