<svg width="25" height="23" viewBox="0 0 25 23" fill="none" xmlns="http://www.w3.org/2000/svg">
<path d="M12.9135 1.35355L15.6993 7.58946C15.8675 7.96603 16.2283 8.22036 16.6395 8.25223L23.7354 8.8022C24.0738 8.82842 24.2061 9.25474 23.942 9.46788L18.6189 13.7644C18.2775 14.04 18.1274 14.4889 18.2345 14.9144L19.8594 21.372C19.94 21.6923 19.5972 21.9529 19.3102 21.7894L13.1278 18.2688C12.7827 18.0722 12.3595 18.0722 12.0144 18.2688L5.83197 21.7894C5.54497 21.9529 5.20214 21.6923 5.28274 21.372L6.90767 14.9144C7.01474 14.4889 6.86468 14.04 6.52328 13.7644L1.20017 9.46789C0.936103 9.25474 1.06839 8.82842 1.40672 8.8022L8.50265 8.25223C8.91385 8.22036 9.27465 7.96603 9.44288 7.58947L12.2287 1.35355C12.361 1.05749 12.7812 1.05749 12.9135 1.35355Z" stroke="white" stroke-width="0.75"/>
</svg>
