<svg width="31" height="29" viewBox="0 0 31 29" fill="none" xmlns="http://www.w3.org/2000/svg">
<g filter="url(#filter0_d_1_23)">
<path d="M14.9732 4.20059C15.2377 3.60848 16.0783 3.60848 16.3428 4.20059L19.1286 10.4365C19.2407 10.6876 19.4813 10.8571 19.7554 10.8784L26.8513 11.4283C27.528 11.4808 27.7926 12.3334 27.2644 12.7597L21.9413 17.0563C21.7137 17.24 21.6137 17.5392 21.6851 17.8229L23.31 24.2805C23.4712 24.9211 22.7855 25.4422 22.2115 25.1153L16.0291 21.5946C15.7991 21.4636 15.5169 21.4636 15.2869 21.5946L9.10445 25.1153C8.53047 25.4421 7.8448 24.9211 8.00599 24.2805L9.63092 17.8229C9.7023 17.5392 9.60226 17.24 9.37466 17.0563L4.05155 12.7597C3.52342 12.3334 3.78798 11.4808 4.46466 11.4283L11.5606 10.8784C11.8347 10.8571 12.0753 10.6876 12.1874 10.4365L14.9732 4.20059Z" fill="#FECF47"/>
</g>
<defs>
<filter id="filter0_d_1_23" x="0.771606" y="0.7565" width="29.7728" height="27.4593" filterUnits="userSpaceOnUse" color-interpolation-filters="sRGB">
<feFlood flood-opacity="0" result="BackgroundImageFix"/>
<feColorMatrix in="SourceAlpha" type="matrix" values="0 0 0 0 0 0 0 0 0 0 0 0 0 0 0 0 0 0 127 0" result="hardAlpha"/>
<feOffset/>
<feGaussianBlur stdDeviation="1.5"/>
<feComposite in2="hardAlpha" operator="out"/>
<feColorMatrix type="matrix" values="0 0 0 0 0 0 0 0 0 0 0 0 0 0 0 0 0 0 0.12 0"/>
<feBlend mode="normal" in2="BackgroundImageFix" result="effect1_dropShadow_1_23"/>
<feBlend mode="normal" in="SourceGraphic" in2="effect1_dropShadow_1_23" result="shape"/>
</filter>
</defs>
</svg>
