<svg width="27" height="27" viewBox="0 0 27 27" fill="none" xmlns="http://www.w3.org/2000/svg">
<path d="M11.4375 21C13.3789 20.9996 15.2643 20.3497 16.7936 19.1537L21.6017 23.9619L23.1483 22.4153L18.3402 17.6072C19.5367 16.0778 20.187 14.1919 20.1875 12.25C20.1875 7.42547 16.262 3.5 11.4375 3.5C6.61297 3.5 2.6875 7.42547 2.6875 12.25C2.6875 17.0745 6.61297 21 11.4375 21ZM11.4375 5.6875C15.0567 5.6875 18 8.63078 18 12.25C18 15.8692 15.0567 18.8125 11.4375 18.8125C7.81828 18.8125 4.875 15.8692 4.875 12.25C4.875 8.63078 7.81828 5.6875 11.4375 5.6875Z" fill="white"/>
</svg>
