<svg width="31" height="29" viewBox="0 0 31 29" fill="none" xmlns="http://www.w3.org/2000/svg">
<g filter="url(#filter0_d_1_21)">
<path d="M15.1468 4.20059C15.4113 3.60848 16.2518 3.60848 16.5164 4.20059L19.3022 10.4365C19.4143 10.6876 19.6549 10.8571 19.929 10.8784L27.0249 11.4283C27.7016 11.4808 27.9662 12.3334 27.438 12.7597L22.1149 17.0563C21.8873 17.24 21.7873 17.5392 21.8587 17.8229L23.4836 24.2805C23.6448 24.9211 22.9591 25.4422 22.3851 25.1153L16.2027 21.5946C15.9726 21.4636 15.6905 21.4636 15.4604 21.5946L9.27804 25.1153C8.70405 25.4421 8.01839 24.9211 8.17957 24.2805L9.80451 17.8229C9.87588 17.5392 9.77585 17.24 9.54824 17.0563L4.22514 12.7597C3.69701 12.3334 3.96157 11.4808 4.63824 11.4283L11.7342 10.8784C12.0083 10.8571 12.2488 10.6876 12.361 10.4365L15.1468 4.20059Z" fill="#FECF47"/>
</g>
<defs>
<filter id="filter0_d_1_21" x="0.94519" y="0.7565" width="29.7728" height="27.4593" filterUnits="userSpaceOnUse" color-interpolation-filters="sRGB">
<feFlood flood-opacity="0" result="BackgroundImageFix"/>
<feColorMatrix in="SourceAlpha" type="matrix" values="0 0 0 0 0 0 0 0 0 0 0 0 0 0 0 0 0 0 127 0" result="hardAlpha"/>
<feOffset/>
<feGaussianBlur stdDeviation="1.5"/>
<feComposite in2="hardAlpha" operator="out"/>
<feColorMatrix type="matrix" values="0 0 0 0 0 0 0 0 0 0 0 0 0 0 0 0 0 0 0.12 0"/>
<feBlend mode="normal" in2="BackgroundImageFix" result="effect1_dropShadow_1_21"/>
<feBlend mode="normal" in="SourceGraphic" in2="effect1_dropShadow_1_21" result="shape"/>
</filter>
</defs>
</svg>
